<?xml version="1.0" encoding="utf-8"?>
<!-- Generator: Adobe Illustrator 22.0.0, SVG Export Plug-In . SVG Version: 6.00 Build 0)  -->
<svg version="1.1" id="Capa_1" xmlns="http://www.w3.org/2000/svg" xmlns:xlink="http://www.w3.org/1999/xlink" x="0px" y="0px"
	 viewBox="0 0 16 16" style="enable-background:new 0 0 16 16;" xml:space="preserve">
<style type="text/css">
	.st0{fill:#FFFFFF;}
</style>
<g>
	<path class="st0" d="M3.9,6.5C3.8,6.4,3.7,6.3,3.6,6.1C3,4.8,3.3,3,5.1,2.2c0.8-0.4,1.6-0.5,2.5-0.3c0.7,0.1,1.2,0.5,1.6,1
		c0.5,0.6,0.9,1.3,1.1,2.1c0.1,0.3,0.1,0.3,0.4,0.1c0.9-0.5,1.9-0.6,2.9-0.2c0.9,0.4,1.4,1.2,1.6,2.1c0.2,1.1-0.2,2.1-1,2.8
		c-0.7,0.6-1.5,1.1-2.4,1.4c0,0-0.1,0-0.2,0c-0.6-0.2-1.1-0.4-1.7-0.6c0.3-0.3,0.7-0.5,1-0.8c0.3-0.3,0.6-0.7,0.8-1.1
		c-0.1,0.1-0.2,0.2-0.3,0.3c-0.4,0.5-1,0.9-1.5,1.2c-0.5,0.3-1,0.3-1.5,0.2c-0.1,0-0.2,0-0.3-0.1c-0.3,0-0.6-0.2-0.8-0.5
		c-0.4-0.5-0.6-1-0.7-1.6c0,0,0-0.1,0-0.1c0,0,0,0-0.1-0.1c0,0.1,0,0.1,0,0.2c0,0.4,0.1,0.9,0.3,1.3c0.1,0.3,0.3,0.5,0.5,0.8
		c-0.2,0-0.3,0.1-0.5,0.1c-0.5,0.1-1,0.1-1.5-0.1c-0.6-0.2-1.1-0.5-1.5-0.9C3.7,9.3,3.4,9.1,3.3,8.9c0.4,0.8,1.2,1.4,2.2,1.8
		c-0.2,0.1-0.4,0.1-0.6,0.2C4.6,11,4.3,11.2,4,11.3c-0.1,0-0.1,0-0.2,0c-0.8-0.2-1.6-0.6-2.3-1.2C1,9.7,0.7,9.1,0.7,8.3
		c0-0.6,0.1-1.2,0.4-1.8c0.3-0.6,0.8-1.1,1.5-1.3c0.3-0.1,0.4,0,0.5,0.2c0.1,0.4,0.3,0.7,0.6,1C3.8,6.5,3.8,6.5,3.9,6.5
		C3.8,6.6,3.9,6.6,3.9,6.5z"/>
	<path d="M3.9,11.4C3.9,11.4,3.9,11.4,3.9,11.4c-1-0.3-1.8-0.7-2.4-1.2c-0.6-0.5-0.9-1.2-1-1.9c0-0.6,0.1-1.2,0.4-1.8
		c0.3-0.7,0.9-1.1,1.6-1.3c0.3-0.1,0.5,0,0.6,0.3s0.3,0.6,0.5,0.8c0,0,0-0.1-0.1-0.1C3.2,5.4,3.2,4.5,3.4,3.8C3.7,3,4.3,2.5,5.1,2.1
		c0.9-0.4,1.7-0.5,2.6-0.3c0.6,0.1,1.2,0.5,1.7,1.1c0.5,0.6,0.8,1.3,1.1,2.1c0,0.1,0.1,0.2,0.1,0.2c0,0,0.1-0.1,0.2-0.1
		c1-0.6,2-0.6,3-0.2C14.6,5.2,15.1,6,15.3,7c0.2,1.1-0.1,2.1-1,2.9c-0.6,0.6-1.4,1.1-2.4,1.4c-0.1,0-0.1,0-0.2,0
		c-0.4-0.2-0.9-0.3-1.3-0.5L10,10.8c0,0-0.1,0-0.1-0.1c0,0,0-0.1,0-0.1c0.1-0.1,0.2-0.2,0.3-0.2c0.2-0.2,0.5-0.4,0.7-0.6
		c0.1-0.1,0.1-0.1,0.2-0.2c-0.4,0.3-0.7,0.6-1.1,0.8c-0.5,0.3-1.1,0.3-1.6,0.2c0,0-0.1,0-0.1,0c-0.1,0-0.1,0-0.2,0
		c-0.3,0-0.6-0.2-0.9-0.5C7.1,9.6,6.9,9.2,6.8,8.8C6.9,9,7,9.3,7.1,9.5c0.1,0.2,0.2,0.4,0.3,0.5c0.1,0.1,0.1,0.2,0.1,0.3
		c0,0,0,0.1,0,0.1c0,0,0,0-0.1,0c-0.1,0-0.1,0-0.1,0c-0.1,0-0.2,0-0.3,0c-0.5,0.1-1,0.1-1.5-0.1C4.9,10.3,4.4,10,3.9,9.6
		c0,0,0,0-0.1-0.1c0.4,0.5,1,0.8,1.7,1.1c0,0,0.1,0,0.1,0.1c0,0,0,0.1-0.1,0.1c-0.1,0-0.1,0-0.2,0.1c-0.1,0-0.3,0.1-0.4,0.1
		c-0.2,0.1-0.3,0.1-0.5,0.2c-0.1,0.1-0.2,0.1-0.4,0.2C4,11.4,4,11.4,3.9,11.4z M2.8,5.3c0,0-0.1,0-0.2,0C1.9,5.6,1.4,6,1.1,6.6
		C0.9,7.2,0.7,7.8,0.8,8.3c0,0.7,0.3,1.3,0.9,1.8C2.2,10.6,3,11,3.9,11.3c0,0,0,0,0.1,0c0.1-0.1,0.2-0.1,0.4-0.2
		c0.2-0.1,0.3-0.2,0.5-0.2c0.1-0.1,0.2-0.1,0.4-0.1c-0.9-0.4-1.6-1-2-1.7c0,0,0-0.1,0-0.1c0,0,0.1,0,0.1,0c0,0,0.1,0.1,0.2,0.1
		C3.6,9.1,3.8,9.3,4,9.4c0.5,0.4,1,0.7,1.5,0.9c0.5,0.1,1,0.1,1.5,0c0.1,0,0.2,0,0.3,0c0,0,0,0,0,0c0,0-0.1-0.1-0.1-0.1
		C7.1,10,7,9.8,6.9,9.6C6.7,9.1,6.6,8.7,6.6,8.3c0-0.1,0-0.1,0-0.2c0,0,0,0,0-0.1c0,0,0-0.1,0-0.1c0,0,0.1,0,0.1,0
		c0,0,0.1,0.1,0.1,0.1c0,0,0,0.1,0,0.1c0.1,0.6,0.3,1.1,0.7,1.6c0.2,0.3,0.5,0.4,0.8,0.5c0.1,0,0.1,0,0.2,0c0,0,0.1,0,0.1,0
		c0.4,0.1,1,0.1,1.5-0.2c0.5-0.3,1.1-0.6,1.5-1.2c0.1-0.1,0.1-0.1,0.2-0.2c0,0,0.1-0.1,0.1-0.1s0.1,0,0.1,0c0,0,0,0.1,0,0.1
		c-0.2,0.4-0.5,0.8-0.8,1.1c-0.2,0.2-0.5,0.4-0.7,0.6c-0.1,0-0.1,0.1-0.2,0.1l0.2,0.1c0.4,0.2,0.9,0.3,1.3,0.5c0,0,0.1,0,0.1,0
		c1-0.4,1.8-0.8,2.4-1.4c0.9-0.8,1.2-1.7,1-2.7c-0.2-1-0.7-1.7-1.6-2.1c-0.9-0.4-1.9-0.3-2.8,0.2c-0.1,0.1-0.2,0.1-0.3,0.1
		c-0.1,0-0.1-0.1-0.2-0.3C10,4.2,9.6,3.5,9.2,2.9c-0.5-0.6-1-0.9-1.6-1C6.8,1.8,6,1.9,5.1,2.2C4.4,2.6,3.9,3.1,3.6,3.8
		C3.3,4.5,3.4,5.4,3.7,6.1c0,0.1,0.1,0.2,0.2,0.3c0,0,0.1,0.1,0.1,0.1c0,0,0,0.1,0,0.1l0,0c0,0-0.1,0-0.1,0c0,0,0,0,0,0
		c0,0-0.1,0-0.1-0.1C3.4,6.3,3.1,6,3,5.5C2.9,5.4,2.9,5.3,2.8,5.3z"/>
</g>
<g>
	<path class="st0" d="M11.6,13.2c0,0.3,0,0.6,0,0.8c0,0.2,0,0.2-0.2,0.2c-0.6-0.1-1.2-0.3-1.9-0.4c-0.9-0.1-1.9-0.2-2.8-0.1
		c-0.7,0.1-1.3,0.2-2,0.2c-0.2,0-0.2,0-0.3-0.2c-0.1-0.6-0.2-1.1-0.3-1.7c0-0.1,0-0.3,0.2-0.3c0.3-0.2,0.7-0.3,1-0.4
		C6.2,11.1,7.1,11,8,11.1c1.2,0.1,2.3,0.4,3.4,0.9c0.1,0,0.2,0.1,0.2,0.2C11.6,12.5,11.6,12.9,11.6,13.2
		C11.6,13.2,11.6,13.2,11.6,13.2z"/>
	<path d="M11.5,14.3c0,0-0.1,0-0.1,0c-0.2,0-0.3-0.1-0.5-0.1c-0.4-0.1-0.9-0.2-1.4-0.3c-0.9-0.1-1.8-0.2-2.8-0.1
		c-0.5,0-0.9,0.1-1.4,0.2c-0.2,0-0.4,0.1-0.6,0.1c-0.2,0-0.3,0-0.4-0.3c-0.1-0.5-0.2-1-0.2-1.5l0-0.2c0-0.2,0.1-0.3,0.2-0.4
		c0.1,0,0.1-0.1,0.2-0.1c0.3-0.1,0.6-0.3,0.8-0.4C6.2,11,7,10.9,8,11c1.1,0.1,2.2,0.3,3.4,0.9c0.1,0.1,0.2,0.2,0.2,0.3
		c0,0.2,0,0.5,0,0.7v0.2c0,0,0,0,0,0.1v0.3c0,0.2,0,0.4,0,0.6c0,0.1,0,0.2-0.1,0.2C11.6,14.3,11.5,14.3,11.5,14.3z M7.8,13.6
		c0.6,0,1.2,0,1.7,0.1c0.5,0.1,0.9,0.2,1.4,0.3c0.2,0,0.3,0.1,0.5,0.1c0.1,0,0.1,0,0.1,0c0,0,0,0,0-0.1c0-0.2,0-0.4,0-0.6v-0.2
		c0,0,0,0,0-0.1v-0.3c0-0.2,0-0.5,0-0.7c0-0.1,0-0.1-0.1-0.2c-1.2-0.5-2.3-0.8-3.4-0.9c-1-0.1-1.8,0.1-2.6,0.3
		c-0.3,0.1-0.6,0.2-0.8,0.3c-0.1,0-0.1,0.1-0.2,0.1c-0.1,0-0.1,0.1-0.1,0.2l0,0.2c0.1,0.5,0.2,1,0.2,1.5c0,0.1,0,0.1,0.2,0.1
		c0.2,0,0.4-0.1,0.6-0.1c0.5-0.1,0.9-0.1,1.4-0.2C7.1,13.6,7.4,13.6,7.8,13.6z"/>
</g>
</svg>
