<?xml version="1.0" encoding="utf-8"?>
<!-- Generator: Adobe Illustrator 22.0.0, SVG Export Plug-In . SVG Version: 6.00 Build 0)  -->
<svg version="1.1" id="Capa_1" xmlns="http://www.w3.org/2000/svg" xmlns:xlink="http://www.w3.org/1999/xlink" x="0px" y="0px"
	 viewBox="0 0 566.9 566.9" style="enable-background:new 0 0 566.9 566.9;" xml:space="preserve">
<style type="text/css">
	.st0{fill:#FFFFFF;stroke:#000000;stroke-width:2;stroke-linecap:round;stroke-linejoin:round;stroke-miterlimit:10;}
	.st1{fill:#1A1A1A;}
	.st2{fill:#FFFFFF;}
</style>
<circle class="st0" cx="283.2" cy="283.5" r="279.2"/>
<g>
	<path class="st1" d="M135.8,468l6,17l6-17h6.3v23.5h-4.9V485l0.5-11l-6.3,17.5H140l-6.3-17.5l0.5,11v6.5h-4.9V468H135.8z"/>
	<path class="st1" d="M158,469.4c0-0.6,0.2-1.3,0.6-1.7c0.5-0.5,1.1-0.6,1.9-0.6s1.4,0.2,1.9,0.6c0.5,0.5,0.8,1.1,0.8,1.7
		c0,0.8-0.3,1.3-0.8,1.7c-0.5,0.5-1.1,0.6-1.9,0.6s-1.4-0.2-1.9-0.6C158.3,470.7,158,470.2,158,469.4z M163.1,491.5h-4.7V474h4.7
		V491.5z"/>
	<path class="st1" d="M171.9,491.5h-4.7v-24.9h4.7V491.5z"/>
	<path class="st1" d="M185.8,491.5c-0.2-0.5-0.3-0.9-0.5-1.6c-1.1,1.3-2.7,1.9-4.4,1.9s-3.2-0.5-4.3-1.4c-1.1-0.9-1.7-2.2-1.7-3.8
		c0-1.9,0.6-3.3,2.1-4.3c1.4-0.9,3.3-1.4,6-1.6h2.2v-0.9c0-0.8-0.2-1.4-0.6-1.9c-0.5-0.5-1.1-0.8-1.9-0.8s-1.4,0.2-1.9,0.6
		c-0.5,0.5-0.6,0.9-0.6,1.6h-4.7c0-0.9,0.3-1.9,0.9-2.8c0.6-0.8,1.6-1.6,2.7-2.1c1.1-0.5,2.4-0.8,3.8-0.8c2.2,0,3.9,0.5,5.2,1.6
		s1.9,2.7,1.9,4.6v7.6c0,1.7,0.3,2.8,0.6,3.8v0.3H185.8z M182,488.2c0.6,0,1.3-0.2,1.9-0.5c0.6-0.3,0.9-0.8,1.3-1.3v-3h-1.7
		c-2.4,0-3.6,0.8-3.8,2.4v0.3c0,0.6,0.2,1.1,0.6,1.4S181.2,488.2,182,488.2z"/>
	<path class="st1" d="M197.8,474l0.2,2.1c1.3-1.6,3-2.4,5.1-2.4c1.9,0,3.3,0.5,4.1,1.6s1.4,2.7,1.4,4.9v11.4h-4.7v-11.2
		c0-0.9-0.2-1.7-0.6-2.2c-0.5-0.5-1.1-0.6-2.2-0.6c-1.3,0-2.4,0.6-3,1.7v12.3h-4.7V474H197.8z"/>
	<path class="st1" d="M220.1,491.8c-2.5,0-4.7-0.8-6.3-2.4c-1.6-1.6-2.4-3.6-2.4-6.3v-0.5c0-1.7,0.3-3.3,0.9-4.7
		c0.6-1.4,1.6-2.5,2.8-3.2c1.3-0.8,2.7-1.1,4.3-1.1c2.4,0,4.3,0.8,5.7,2.2c1.4,1.6,2.1,3.6,2.1,6.5v1.9H216c0.2,1.1,0.6,2.1,1.4,2.7
		c0.8,0.6,1.7,1.1,2.8,1.1c1.7,0,3.2-0.6,4.3-1.9l2.4,2.5c-0.6,0.9-1.6,1.7-2.8,2.4C222.9,491.5,221.5,491.8,220.1,491.8z
		 M219.6,477.5c-0.9,0-1.7,0.3-2.2,0.9c-0.5,0.6-0.9,1.6-1.1,2.7h6.5v-0.3c0-1.1-0.3-1.9-0.8-2.4
		C221.5,477.9,220.5,477.5,219.6,477.5z"/>
	<path class="st1" d="M239.5,486.6c0-0.6-0.3-0.9-0.8-1.4c-0.6-0.3-1.4-0.6-2.7-0.9c-4.1-0.9-6.3-2.7-6.3-5.4c0-1.6,0.6-2.8,1.9-3.9
		c1.3-1.1,3-1.6,5.1-1.6c2.2,0,3.9,0.5,5.4,1.6c1.3,1.1,2.1,2.4,2.1,4.1h-4.7c0-0.6-0.2-1.3-0.6-1.7c-0.5-0.5-1.1-0.6-2.1-0.6
		c-0.8,0-1.4,0.2-1.9,0.5c-0.5,0.3-0.6,0.8-0.6,1.4c0,0.5,0.3,0.9,0.8,1.3c0.5,0.3,1.3,0.6,2.5,0.8c1.1,0.2,2.2,0.5,3,0.8
		c2.5,0.9,3.6,2.5,3.6,4.7c0,1.6-0.6,2.8-2.1,3.9c-1.4,0.9-3.2,1.4-5.4,1.4c-1.4,0-2.8-0.3-3.9-0.8c-1.1-0.5-2.1-1.3-2.7-2.2
		c-0.6-0.9-0.9-1.9-0.9-3h4.4c0,0.8,0.3,1.4,0.9,1.9c0.6,0.5,1.3,0.6,2.4,0.6c0.9,0,1.6-0.2,2.1-0.5
		C239.1,487.7,239.5,487.3,239.5,486.6z"/>
	<path class="st1" d="M257.1,491.5c-0.2-0.5-0.3-0.9-0.5-1.6c-1.1,1.3-2.7,1.9-4.4,1.9c-1.7,0-3.2-0.5-4.3-1.4
		c-1.1-0.9-1.7-2.2-1.7-3.8c0-1.9,0.6-3.3,2.1-4.3c1.4-0.9,3.3-1.4,6-1.6h2.2v-0.9c0-0.8-0.2-1.4-0.6-1.9c-0.5-0.5-1.1-0.8-1.9-0.8
		c-0.8,0-1.4,0.2-1.9,0.6c-0.5,0.5-0.6,0.9-0.6,1.6h-4.7c0-0.9,0.3-1.9,0.9-2.8c0.6-0.8,1.6-1.6,2.7-2.1c1.1-0.5,2.4-0.8,3.8-0.8
		c2.2,0,3.9,0.5,5.2,1.6s1.9,2.7,1.9,4.6v7.6c0,1.7,0.3,2.8,0.6,3.8v0.3H257.1z M253.2,488.2c0.6,0,1.3-0.2,1.9-0.5
		c0.6-0.3,0.9-0.8,1.3-1.3v-3h-1.7c-2.4,0-3.6,0.8-3.8,2.4v0.3c0,0.6,0.2,1.1,0.6,1.4C251.9,487.9,252.6,488.2,253.2,488.2z"/>
	<path class="st1" d="M274.2,486.6c0-0.6-0.3-0.9-0.8-1.4c-0.6-0.3-1.4-0.6-2.7-0.9c-4.1-0.9-6.3-2.7-6.3-5.4c0-1.6,0.6-2.8,1.9-3.9
		c1.3-1.1,3-1.6,5.1-1.6c2.2,0,3.9,0.5,5.4,1.6c1.3,1.1,2.1,2.4,2.1,4.1H274c0-0.6-0.2-1.3-0.6-1.7c-0.5-0.5-1.1-0.6-2.1-0.6
		c-0.8,0-1.4,0.2-1.9,0.5c-0.5,0.3-0.6,0.8-0.6,1.4c0,0.5,0.3,0.9,0.8,1.3c0.5,0.3,1.3,0.6,2.5,0.8c1.1,0.2,2.2,0.5,3,0.8
		c2.5,0.9,3.6,2.5,3.6,4.7c0,1.6-0.6,2.8-2.1,3.9c-1.4,0.9-3.2,1.4-5.4,1.4c-1.4,0-2.8-0.3-3.9-0.8c-1.1-0.5-2.1-1.3-2.7-2.2
		c-0.6-0.9-0.9-1.9-0.9-3h4.4c0,0.8,0.3,1.4,0.9,1.9s1.3,0.6,2.4,0.6c0.9,0,1.6-0.2,2.1-0.5C274,487.7,274.2,487.3,274.2,486.6z"/>
	<path class="st1" d="M289.3,482.7c0-2.7,0.6-4.9,1.9-6.5c1.3-1.6,2.8-2.4,5.1-2.4c1.7,0,3.2,0.6,4.3,1.9v-9h4.7v24.9H301l-0.2-1.9
		c-1.1,1.4-2.7,2.2-4.6,2.2c-2.1,0-3.8-0.8-4.9-2.4C290,487.7,289.3,485.5,289.3,482.7z M294.1,483c0,1.6,0.3,2.8,0.8,3.8
		c0.5,0.9,1.4,1.3,2.5,1.3c1.4,0,2.5-0.6,3-1.9v-6.9c-0.6-1.3-1.6-1.9-3-1.9C295.2,477.5,294.1,479.4,294.1,483z"/>
	<path class="st1" d="M316.8,491.8c-2.5,0-4.7-0.8-6.3-2.4c-1.6-1.6-2.4-3.6-2.4-6.3v-0.5c0-1.7,0.3-3.3,0.9-4.7
		c0.6-1.4,1.6-2.5,2.8-3.2c1.3-0.8,2.7-1.1,4.3-1.1c2.4,0,4.3,0.8,5.7,2.2c1.4,1.6,2.1,3.6,2.1,6.5v1.9h-11.2
		c0.2,1.1,0.6,2.1,1.4,2.7c0.8,0.6,1.7,1.1,2.8,1.1c1.7,0,3.2-0.6,4.3-1.9l2.4,2.5c-0.6,0.9-1.6,1.7-2.8,2.4
		C319.6,491.5,318.2,491.8,316.8,491.8z M316.3,477.5c-0.9,0-1.7,0.3-2.2,0.9c-0.6,0.6-0.9,1.6-1.1,2.7h6.5v-0.3
		c0-1.1-0.3-1.9-0.8-2.4C318.2,477.9,317.3,477.5,316.3,477.5z"/>
	<path class="st1" d="M342.2,488c0.8,0,1.6-0.3,2.1-0.8c0.5-0.5,0.8-1.1,0.8-1.9h4.4c0,1.3-0.3,2.2-0.9,3.3
		c-0.6,0.9-1.6,1.7-2.7,2.4c-1.1,0.5-2.4,0.8-3.6,0.8c-2.5,0-4.4-0.8-6-2.4c-1.4-1.6-2.2-3.8-2.2-6.6v-0.3c0-2.7,0.8-4.9,2.2-6.5
		c1.4-1.6,3.5-2.4,5.8-2.4c2.2,0,3.9,0.6,5.2,1.9c1.3,1.3,2.1,2.8,2.1,5.1h-4.4c0-0.9-0.3-1.6-0.8-2.2c-0.5-0.6-1.3-0.8-2.2-0.8
		c-1.1,0-1.9,0.5-2.5,1.3c-0.6,0.8-0.8,2.1-0.8,3.8v0.5c0,1.7,0.3,3.2,0.8,3.9C339.8,487.9,341.1,488,342.2,488z"/>
	<path class="st1" d="M362.2,491.5c-0.2-0.5-0.3-0.9-0.5-1.6c-1.1,1.3-2.7,1.9-4.4,1.9c-1.7,0-3.2-0.5-4.3-1.4
		c-1.1-0.9-1.7-2.2-1.7-3.8c0-1.9,0.6-3.3,2.1-4.3c1.4-0.9,3.3-1.4,6-1.6h2.2v-0.9c0-0.8-0.2-1.4-0.6-1.9c-0.5-0.5-1.1-0.8-1.9-0.8
		c-0.8,0-1.4,0.2-1.9,0.6c-0.5,0.3-0.6,0.9-0.6,1.6h-4.7c0-0.9,0.3-1.9,0.9-2.8c0.6-0.8,1.6-1.6,2.7-2.1c1.1-0.5,2.4-0.8,3.8-0.8
		c2.2,0,3.9,0.5,5.2,1.6s1.9,2.7,1.9,4.6v7.6c0,1.7,0.3,2.8,0.6,3.8v0.3H362.2z M358.5,488.2c0.6,0,1.3-0.2,1.9-0.5
		c0.6-0.3,0.9-0.8,1.3-1.3v-3h-1.7c-2.4,0-3.6,0.8-3.8,2.4v0.3c0,0.6,0.2,1.1,0.6,1.4C357.2,487.9,357.7,488.2,358.5,488.2z"/>
	<path class="st1" d="M374.9,491.5h-4.7v-24.9h4.7V491.5z"/>
	<path class="st1" d="M378.7,469.4c0-0.6,0.2-1.3,0.6-1.7c0.5-0.5,1.1-0.6,1.9-0.6c0.8,0,1.4,0.2,1.9,0.6c0.5,0.5,0.8,1.1,0.8,1.7
		c0,0.8-0.3,1.3-0.8,1.7c-0.5,0.5-1.1,0.6-1.9,0.6c-0.8,0-1.4-0.2-1.9-0.6C379,470.7,378.7,470.2,378.7,469.4z M383.7,491.5H379V474
		h4.7V491.5z"/>
	<path class="st1" d="M386.9,482.7c0-2.7,0.6-4.9,1.9-6.5c1.3-1.6,2.8-2.4,5.1-2.4c1.7,0,3.2,0.6,4.3,1.9v-9h4.7v24.9h-4.3l-0.2-1.9
		c-1.1,1.4-2.7,2.2-4.6,2.2c-2.1,0-3.8-0.8-4.9-2.4C387.3,487.7,386.9,485.5,386.9,482.7z M391.4,483c0,1.6,0.3,2.8,0.8,3.8
		c0.5,0.9,1.4,1.3,2.5,1.3c1.4,0,2.5-0.6,3-1.9v-6.9c-0.6-1.3-1.6-1.9-3-1.9C392.5,477.5,391.4,479.4,391.4,483z"/>
	<path class="st1" d="M416.4,491.5c-0.2-0.5-0.3-0.9-0.5-1.6c-1.1,1.3-2.7,1.9-4.4,1.9c-1.7,0-3.2-0.5-4.3-1.4
		c-1.1-0.9-1.7-2.2-1.7-3.8c0-1.9,0.6-3.3,2.1-4.3s3.3-1.4,6-1.6h2.2v-0.9c0-0.8-0.2-1.4-0.6-1.9c-0.5-0.5-1.1-0.8-1.9-0.8
		c-0.8,0-1.4,0.2-1.9,0.6c-0.5,0.3-0.6,0.9-0.6,1.6H406c0-0.9,0.3-1.9,0.9-2.8c0.6-0.8,1.6-1.6,2.7-2.1c1.1-0.5,2.4-0.8,3.8-0.8
		c2.2,0,3.9,0.5,5.2,1.6s1.9,2.7,1.9,4.6v7.6c0,1.7,0.3,2.8,0.6,3.8v0.3H416.4z M412.4,488.2c0.6,0,1.3-0.2,1.9-0.5
		c0.6-0.3,0.9-0.8,1.3-1.3v-3h-1.7c-2.4,0-3.6,0.8-3.8,2.4v0.3c0,0.6,0.2,1.1,0.6,1.4C411.2,487.9,411.8,488.2,412.4,488.2z"/>
	<path class="st1" d="M423.2,482.7c0-2.7,0.6-4.9,1.9-6.5c1.3-1.6,2.8-2.4,5.1-2.4c1.7,0,3.2,0.6,4.3,1.9v-9h4.7v24.9h-4.3l-0.2-1.9
		c-1.1,1.4-2.7,2.2-4.6,2.2c-2.1,0-3.8-0.8-4.9-2.4C423.8,487.7,423.2,485.5,423.2,482.7z M427.9,483c0,1.6,0.3,2.8,0.8,3.8
		c0.5,0.9,1.4,1.3,2.5,1.3c1.4,0,2.5-0.6,3-1.9v-6.9c-0.6-1.3-1.6-1.9-3-1.9C429,477.5,427.9,479.4,427.9,483z"/>
</g>
<g>
	<g>
		<path class="st2" d="M192.2,269.5c-1.8-3.1-3.5-6.3-5.2-9.6c-13.2-28.1-7.9-69.2,32.7-87.3c17.7-7.9,36.2-10.8,55.5-7
			c15,3,26.4,11.6,36.1,23c11.5,13.6,19.1,29.3,24.7,46.1c2.1,6.4,2.6,6.5,8.6,3.1c20.6-11.8,42-14.2,64-4.4
			c20.1,9.1,31.3,25.5,35.9,46.8c5.3,25.2-3.4,45.4-21.5,62.5c-15.4,14.3-33.6,24-53.1,31.5c-1,0.4-2.5,0.5-3.5,0.1
			c-12.5-4.5-24.8-9.1-36.6-13.5c7.3-5.8,15.2-11.6,22.8-18.1c7.5-6.5,13.3-14.5,17.9-23.4c-1.9,2-3.8,4-5.7,6
			c-9.4,11.1-21.4,19.3-33.8,26.4c-10.6,6.2-22.1,6-33.7,4c-2.1-0.4-4.3-1-6.4-1.3c-7.7-1-13.3-5.3-18.1-11.1
			c-8.6-10.4-13.7-22.4-15.4-35.7c-0.1-1-0.4-2-0.6-3.1c-0.1-0.4-0.4-0.8-1.3-1.3c-0.3,1.6-0.6,3.3-0.8,4.8
			c-0.3,9.9,2.9,19,7.3,27.7c3,6,6.7,11.7,10.2,17.7c-3.5,0.5-7.2,1.1-10.9,1.5c-11.1,1.4-22.3,1.9-33.2-1.1
			c-13-3.5-24-10.6-34.1-19.3c-5.5-4.8-10.9-9.8-14.5-13.1c9.7,17.7,26.5,31,47.9,39.5c-4.5,1.8-8.6,3-12.5,4.8
			c-6.2,2.8-12.3,5.9-18.5,8.8c-1.1,0.5-2.6,1-3.6,0.8c-18.5-5.3-35.7-12.8-50.6-25.5c-12.6-10.7-19.9-24.2-20.5-40.8
			c-0.5-14,2.8-27.2,8.9-39.6c7.2-14.3,18.7-23.5,34-28.2c5.9-1.8,8.1-0.8,10.2,5.2c2.9,8.3,7.3,15.5,14.3,21c0.9,0.8,1.9,1.4,2.9,2
			C192,269.6,192.1,269.6,192.2,269.5z"/>
		<path d="M193.5,377.7c-0.4,0-0.9,0-1.3-0.1c-21.6-6.3-37.9-14.5-51.2-25.9c-13.5-11.5-20.5-25.7-21.1-42.2
			c-0.5-13.7,2.5-27.3,9.2-40.5c7.3-14.5,19.1-24.3,35.1-29.2c6.9-2.1,10.1-0.5,12.5,6.4c2.4,6.9,5.7,12.5,10.1,17
			c-0.4-0.8-0.8-1.6-1.3-2.4c-7.8-16.5-8.7-36.2-2.5-52.7c6-16.4,18.6-29.2,36.2-37.1c18.9-8.4,38-10.9,56.6-7.2
			c14,2.8,26,10.6,37.1,23.7c10.6,12.5,18.7,27.8,25,46.7c0.4,1.3,1.3,3.8,1.8,4c0.6,0.1,2.9-1.4,4-2c22.1-12.6,44.2-14.1,65.7-4.4
			c19.6,8.8,32,25,36.9,48.1c5.2,24.2-2.3,45.8-22.1,64.3c-14.1,13.2-31.1,23.3-53.7,31.8c-1.3,0.5-3.1,0.8-4.9,0.1
			c-9.9-3.5-19.8-7.3-29.3-10.8l-7.3-2.6c-0.6-0.3-1.1-0.8-1.3-1.5c-0.1-0.8,0.1-1.4,0.8-1.8c2.1-1.8,4.4-3.5,6.8-5.3
			c5.3-4,10.7-8.3,16-12.8c1.6-1.4,3.3-2.9,4.8-4.5c-7.9,6.8-16.5,12.2-24.2,16.6c-12.1,7-25,5.9-35,4.3c-0.9-0.1-1.9-0.4-2.8-0.5
			c-1.3-0.3-2.4-0.5-3.5-0.6c-7.4-0.9-13.6-4.7-19.4-11.7c-6.3-7.5-10.7-16-13.3-25.2c1.1,4.9,3,9.9,5.9,15.6c2,4,4.4,7.9,6.8,12.1
			c1.1,1.9,2.1,3.6,3.3,5.5c0.3,0.5,0.4,1.3,0,1.8c-0.3,0.5-0.8,1-1.4,1c-1.1,0.1-2.1,0.4-3.3,0.5c-2.5,0.4-5,0.8-7.7,1
			c-10.7,1.3-22.3,2-33.8-1.1c-11.8-3.3-23.3-9.7-34.9-19.6c-0.4-0.4-0.9-0.8-1.3-1.1c9.2,10.1,21.6,18.4,36.7,24.4
			c0.8,0.3,1.1,1,1.1,1.8c0,0.8-0.5,1.5-1.3,1.8c-1.5,0.5-2.9,1-4.2,1.5c-2.9,1-5.5,2-8.1,3.1c-3.5,1.6-7,3.3-10.4,5
			c-2.6,1.3-5.3,2.6-7.9,3.9C196.1,377.2,194.8,377.7,193.5,377.7z M168.8,242.7c-0.9,0-2.1,0.3-3.6,0.8
			c-15.1,4.5-26.2,13.7-32.8,27.2c-6.3,12.6-9.2,25.7-8.7,38.6c0.6,15.5,7.3,28.7,19.9,39.4c13,11.1,28.8,19,49.8,25.2
			c0.3,0,1,0,2.4-0.6c2.6-1.3,5.3-2.5,7.9-3.8c3.4-1.6,7-3.4,10.6-5c2.6-1.1,5.3-2.1,8.1-3.1c-20.3-9.1-35.6-22.3-44.5-38.5
			c-0.5-0.8-0.3-1.8,0.5-2.4c0.8-0.6,1.8-0.5,2.4,0.1c1,0.9,2.1,2,3.4,3.1c3.1,2.9,7,6.5,10.9,9.9c11.1,9.6,22,15.7,33.3,18.9
			c10.9,3,22,2.3,32.5,1c2.5-0.3,5-0.6,7.5-1c0.1,0,0.4,0,0.5-0.1c-0.6-1-1.3-2.1-1.9-3.1c-2.5-4.2-4.8-8.1-6.9-12.3
			c-5.3-10.6-7.7-19.6-7.5-28.6c0-1.3,0.3-2.5,0.5-3.6c0.1-0.5,0.1-1,0.3-1.5c0.1-0.6,0.5-1.1,1-1.4c0.5-0.3,1.1-0.3,1.8,0
			c0.9,0.5,1.9,1.1,2.1,2.4c0.3,1,0.5,2.1,0.6,3.3c1.5,13,6.5,24.7,14.8,34.7c5.2,6.3,10.6,9.6,17,10.3c1.4,0.1,2.6,0.5,3.9,0.8
			c0.9,0.3,1.8,0.4,2.6,0.5c9.3,1.6,21.5,2.6,32.5-3.8c10.9-6.3,23.4-14.3,33.3-26c1.3-1.5,2.6-2.9,3.9-4.3c0.6-0.6,1.1-1.3,1.8-1.9
			s1.6-0.8,2.5-0.3c0.8,0.5,1,1.5,0.6,2.4c-4.8,9.6-10.8,17.6-18.4,24c-5.3,4.5-10.8,8.8-16.1,13c-1.4,1-2.8,2.1-4,3.1l4.2,1.5
			c9.6,3.5,19.4,7.2,29.3,10.8c0.5,0.3,1.5,0.1,2.3-0.1c22-8.4,38.8-18.2,52.5-31.1c19-17.7,25.9-37.6,21-60.6
			c-4.7-21.9-16.4-37.1-34.7-45.4c-20.4-9.2-41.3-7.7-62.3,4.3c-3.3,1.9-5.4,3-7.3,2.3c-2-0.8-2.8-2.9-3.9-6.4
			c-6.2-18.5-14.1-33.3-24.3-45.4c-10.6-12.5-22-19.8-35-22.4c-17.9-3.5-36.1-1.3-54.4,6.9c-16.6,7.4-28.4,19.6-34.2,35
			c-5.8,15.6-4.9,34.2,2.5,49.8c1,2.1,2.3,4.4,3.4,6.4c0.5,1,1.1,2,1.6,3c0.4,0.8,0.3,1.6-0.3,2.1l-0.4,0.4
			c-0.6,0.8-1.8,0.8-2.5,0.3c-0.3-0.3-0.6-0.4-0.9-0.6c-0.8-0.5-1.4-1-2-1.5c-6.8-5.4-11.7-12.5-15-21.9
			C171.7,244,170.9,242.7,168.8,242.7z"/>
	</g>
	<g>
		<path class="st2" d="M363.5,416.5c0,6.2,0,12.3,0,18.4c0,4.2-1,4.8-5.2,3.9c-13.7-2.9-27.4-6.2-41.3-8.2
			c-20.8-3.1-41.6-3.5-62.4-1.6c-14.6,1.4-29.2,3.5-43.8,5.4c-3.8,0.5-5-0.3-5.7-3.9c-2-12.3-3.9-24.8-5.9-37.1
			c-0.5-3.3,1-5.7,3.8-6.8c7.7-3.4,15.2-7.2,23.2-9.9c18.6-6.3,38-8.1,57.6-7c26.3,1.4,51.2,8.7,75.2,19.1c2.4,1,3.8,2.6,3.9,5.4
			c0,7.4,0,14.8,0,22.4C363.1,416.5,363.2,416.5,363.5,416.5z"/>
		<path d="M360.9,441.1c-0.9,0-1.9-0.1-2.9-0.4c-3.6-0.8-7.3-1.5-10.9-2.4c-9.8-2.1-20-4.3-30.1-5.9c-19.9-3-40.8-3.5-62-1.6
			c-10.3,1-20.9,2.4-31.1,3.8c-4.3,0.6-8.4,1.1-12.7,1.6c-4.2,0.5-6.9-0.3-7.8-5.5c-1.8-10.7-3.4-21.4-5-32.1l-0.8-5
			c-0.6-3.9,1.1-7.2,4.9-8.8c1.6-0.8,3.1-1.5,4.8-2.1c6-2.8,12.2-5.7,18.5-7.8c17.7-5.9,36.7-8.3,58.3-7
			c24.2,1.3,48.9,7.7,75.9,19.3c3.3,1.4,5,3.8,5,7.2c0,5.4,0,10.8,0,16.2v4.8c0.4,0.4,0.5,0.8,0.5,1.3v5.5c0,4.3,0,8.6,0,13
			c0,2.4-0.3,4.2-1.6,5.3C362.9,440.9,361.9,441.1,360.9,441.1z M279.6,426c12.8,0,25.5,0.9,37.7,2.8c10.2,1.5,20.4,3.8,30.3,5.9
			c3.6,0.8,7.3,1.6,10.9,2.4c2,0.4,2.5,0.3,2.6,0.3c0,0,0.3-0.4,0.3-2.4c0-4.3,0-8.6,0-12.8v-4.3c-0.4-0.4-0.5-0.8-0.5-1.3v-6.2
			c0-5.4,0-10.8,0-16.2c0-1.8-0.8-2.8-2.6-3.6c-26.5-11.5-51-17.7-74.6-19c-21-1.1-39.6,1.1-56.9,6.9c-6.2,2.1-12.2,4.9-18.1,7.5
			c-1.6,0.8-3.3,1.5-4.8,2.3c-2.1,1-3,2.6-2.6,4.8l0.8,5c1.6,10.7,3.4,21.4,5,32.1c0.4,2.5,0.5,2.8,3.5,2.4
			c4.3-0.5,8.4-1.1,12.7-1.6c10.2-1.4,20.8-2.8,31.2-3.8C263,426.4,271.3,426,279.6,426z"/>
	</g>
</g>
<g>
	<path d="M92,150.3c-0.4-0.4-0.9-0.9-1.3-1.3c0.1,0.3,0.1,0-0.3-0.6c-0.3-0.6-0.9-1.6-1.9-3.1c0-0.4,0-0.7-0.1-1
		c0-0.3-0.1-0.6-0.1-0.7c-0.4-0.1-0.7-0.1-1-0.3s-0.4-0.1-0.4-0.3c-0.9-1.6-1.8-3.3-2.7-4.8c-0.3-0.4-0.3-1-0.3-1.8
		c0-0.7,0.3-1.6,0.6-2.8c0.3-0.9,0.4-1.6,0.7-2.4c0.3-0.7,0.6-1.3,1-1.9c0.4-0.7,0.7-1.2,0.7-1.5s0.1-0.4,0.3-0.6
		c0.4-0.3,0.9-0.3,1.3,0c0.4,0.3,1,0.7,1.6,1.6c0.3,0.4,0.6,1,1,1.9c0.3,0.9,0.6,1.5,0.9,1.9c0.1,0.1,0.6,0.7,1.3,1.6
		c0.7,1,1.9,2.4,3.3,4.2c1,1.3,2.2,2.7,3.7,3.9s3.1,2.5,4.9,3.7c2.4,1.6,4.3,2.5,6.1,3c1.6,0.4,3.1,0.1,4.2-0.6
		c0.9-0.6,1.6-1.9,2.2-4.2c0.6-2.1,1-5.1,1.3-8.7c0.1-2.8,0.3-5.4,0.4-7.6c0-2.4,0-4.3-0.1-6.1c-0.1-1.6-0.1-3.1,0.1-4.6
		c0.3-1.5,0.6-3,1.2-4.6c0.1-0.4,0.4-0.9,0.4-1.2c0.1-0.3,0.3-0.4,0.4-0.6c0.4-0.3,1-0.3,1.8,0.3c0.7,0.4,1.6,1.5,2.5,2.7
		c0.7,1.3,1.5,2.7,2.2,3.9c1.2,2.1,2.2,4.2,3.3,6.6c1,2.4,1.9,4.9,2.8,7.6c0.4,1.3,0.9,2.5,1.2,3.6s0.7,1.8,1,2.5
		c0.1,0.3,0.4,0.9,0.7,1.3c0.3,0.6,0.6,1.2,0.9,1.9c0.1,0.7,0.4,1.6,0.6,2.5c0.1,0.7,0.3,1.5,0.7,2.2c0.3,0.9,0.7,1.8,1.3,2.8
		c0.1,0.1,0.3,0.4,0.4,0.7s0.3,0.6,0.6,0.9c1.3,3,2.5,6,3.7,8.8c0.1,0.3,0.1,0.6,0.3,1c-0.3,0.3-0.4,0.9-0.6,1.5
		c-0.1,0.6-0.3,1.3-0.3,2.2c-0.1,0.9-0.1,1.5-0.3,1.9c-0.1,0.4-0.3,0.7-0.4,0.9s-0.4,0.1-0.6,0.1c-0.1,0-0.4-0.1-0.6-0.4
		c-0.1-0.1-0.1-0.4-0.3-0.6c-0.3-1-0.9-2.5-1.8-4.3c-0.9-1.8-2.1-4-3.6-6.4c-0.3-0.4-1.2-2.1-2.4-4.5c-1.2-2.5-3-6-5.1-10.5
		c-0.3-0.7-0.7-1.6-1.3-2.5c-0.4-1-1-2.2-1.6-3.6c-0.3-0.7-0.4-1.3-0.7-1.9c-0.1-0.4-0.4-0.9-0.6-1c-0.1-0.3-0.3-0.4-0.6-0.4
		s-0.3,0-0.4,0.1s-0.3,0.4-0.4,1.2c-0.1,0.7-0.1,1.6-0.3,2.8c0,0.7,0,1.3-0.1,2.1c0,0.7,0,1.5-0.1,2.2c-0.1,1.2-0.3,2.4-0.4,3.4
		l-0.7,4.8c-0.1,0.3-0.3,0.7-0.4,1.2c-0.1,0.4-0.4,1-0.7,1.8c0,1-0.1,2.2-0.9,3.6c-0.6,1.3-1.3,2.2-2.2,3c-1,0.7-2.2,1.2-3.7,1.2
		s-3.1-0.3-5.1-1c-0.9-0.4-1.8-0.7-2.7-1.2c-0.9-0.4-1.8-0.7-2.7-1l-0.1,0.1c0,0.3,0.4,1.5,1.5,3.6s2.7,5.2,4.8,9.3
		c2.1,4.2,3.9,7.5,5.1,9.9c1.2,2.4,2.1,3.9,2.5,4.5c0.6,0.9,0.9,1.6,1,2.4c0.1,0.6-0.1,1.2-0.6,1.6c-0.3,0.3-0.6,0.6-1,1
		s-0.9,1-1.5,1.8c-0.1,0-0.3,0.1-0.4,0.1c-0.1,0-0.3,0-0.3-0.1l-0.7-1.5l-1.5-1.2c-0.4-0.9-0.7-1.8-1.2-2.5c-1-1.6-1.9-3.1-2.8-4.5
		c-0.1-0.3-0.4-0.9-0.7-1.6s-0.6-1.3-0.9-1.6c-0.1-0.1-0.3-0.4-0.7-0.7c-0.3-0.3-0.6-0.4-0.7-0.7c-1-1.3-2.2-3.6-3.9-6.6
		c-1.5-3-2.8-5.2-3.9-6.7c-0.4-0.6-1-1-1.5-1.5c-0.6-1-1.2-2.2-1.9-3.9C93.8,154.1,93.1,152.4,92,150.3z"/>
	<path d="M150.4,146.4l2.5-4.3c0-0.1,0.1-0.4,0.1-0.7c0.1-0.3,0.1-0.7,0.1-1.3c0-0.4,0.1-0.9,0.3-1.3c0.1-0.4,0.4-0.7,0.7-1.2
		c0.1-0.4,0.3-0.9,0.4-1.5c0.1-0.6,0.4-1.3,0.9-2.2c0.3-0.3,0.4-0.7,0.7-1.3s0.6-1.2,0.9-2.1c1.3-3.6,2.7-6.6,4-8.7
		c1.3-2.1,2.7-3.6,3.9-4.2c0.7-0.3,1.3-0.4,1.8-0.3c0.4,0.1,0.9,0.4,1.2,1c0.3,0.6,0.4,1.2,0.4,1.6c0,0.6-0.1,1-0.4,1.6
		c-0.4,0.9-0.9,1.8-1.5,2.8c-0.1,0.7-0.4,1.6-0.7,2.7s-0.7,1.9-1.3,3.1c-0.1,0.4-0.1,0.9-0.3,1.3c0,0.1-0.1,0.6-0.4,1.2
		c-0.1,0.6-0.4,1.2-0.9,2.1c0,0.7-0.1,1.8-0.6,3.3c-0.4,1.5-1.2,3.3-1.9,5.4c-0.1,0.3-0.3,0.9-0.4,1.8c-0.1,0.9-0.3,2.2-0.6,3.7
		l0.4,0.3c0.4-0.4,1-1.2,1.5-1.9s0.9-1.8,1.3-3c0.4-1.3,0.9-2.4,1.3-3.3c0.4-0.9,0.6-1.3,0.7-1.6c0.1-0.1,0.3-0.4,0.4-0.6
		s0.3-0.4,0.4-0.7c0.6-2.2,1.2-3.9,1.9-5.2s1.6-2.2,2.5-2.7c0.6-0.3,1.2-0.3,1.6,0c0.6,0.3,1,0.9,1.5,1.8c0.6,1.5,1.2,2.8,1.9,4
		c0.4,0.9,1,1.6,1.9,2.1c0.9,0.4,1.8,0.4,2.5,0c0.3-0.1,0.4-0.3,0.6-0.6c0.1-0.3,0.3-0.6,0.4-0.9c0-0.3,0.1-0.7,0.1-1
		s0.1-0.6,0.3-0.9c0.1-0.1,0.1-0.3,0.3-0.6c0.1-0.3,0.3-0.4,0.3-0.7c0.7,0.6,1.5,1.2,2.1,1.6s1,0.9,1.5,1.3c-0.3,0.9-0.7,1.8-1,2.7
		s-0.7,1.8-1,2.7c-0.4,1-1,1.9-1.6,2.7c-0.6,0.7-1.3,1.2-2.1,1.6c-1.8,0.9-3.4,1-4.9,0.4s-2.8-1.8-4-3.9c-0.1-0.3-0.3-0.4-0.4-0.7
		s-0.4-0.4-0.9-0.6c0,0.1-0.1,0.4-0.3,0.6c-0.1,0.3-0.1,0.6-0.3,0.9c-0.3,0.4-0.4,1-0.9,1.8c-0.3,0.7-0.7,1.5-1.2,2.4
		c-0.4,1.5-0.9,2.7-1.2,3.7c-0.3,1-0.6,1.6-0.7,2.1c-0.3,0.7-0.7,1.5-1.2,2.4c-0.4,0.9-1,1.8-1.8,2.7c-0.4,0.6-0.7,1-1.2,1.5
		c-0.3,0.4-0.6,0.6-0.7,0.7c-1.3,0.6-2.5,0.7-3.4,0.4c-0.9-0.3-1.8-1.2-2.4-2.5c-0.3-0.7-0.6-1.5-0.6-2.4s0.1-1.8,0.4-2.7
		c-0.1-0.4-0.3-0.7-0.3-0.9c0-0.1-0.1-0.3-0.3-0.4s-0.3-0.3-0.6-0.4c-0.3-0.3-0.7-0.6-1.2-1s-0.9-0.7-1.5-1.2c0-0.1,0.1-0.4,0.1-0.9
		C150.4,147.6,150.4,147,150.4,146.4z"/>
	<path d="M182,133c0.3-0.7,0.4-1.6,0.7-2.4c1.5-2.5,2.7-4.8,3.4-6.9c0.7-2.1,1.2-4,1.3-5.5l-1.2-1.9c0.1-0.9,0.7-2.1,1.9-3.6
		s2.2-2.4,3.1-2.8c1-0.3,1.9-0.3,2.8,0c0.9,0.3,1.8,0.7,2.7,1.2c0.4,0.1,0.7,0.1,0.9,0.3c1.5,0.4,2.8,1.3,3.9,2.7
		c1.2,1.3,2.1,3.1,2.8,5.4c0.4,1.2,0.6,3,0.4,5.5s0,4.3,0.3,5.4c0,0.1,0.1,0.3,0.3,0.3c0.1,0,0.3,0,0.4,0c0.4-0.1,0.7-0.4,1.2-1
		c0.4-0.4,0.9-1.2,1.2-1.9c1-2.1,1.6-3.3,1.9-3.6s0.6-0.7,0.9-1.2c0.4,0.4,0.9,1,1.5,1.6c0.6,0.6,1,1.2,1.6,1.8
		c-0.1,0.3-0.4,0.7-0.6,1.2c-0.3,0.4-0.4,0.9-0.9,1.5c-0.7,1-1.8,2.4-3,4c-1.2,1.6-2.7,3.4-4.5,5.5c-0.4,0.6-1,1.2-1.6,1.6
		c-1.2,0.4-2.2,0.6-3,0.4c-0.7-0.1-1.2-0.6-1.5-1.5c-0.1-0.3-0.1-0.7-0.1-1.2s0-1,0-1.6c0-0.4,0.1-0.9,0.1-1.3
		c0-0.4,0.1-0.9,0.1-1.3c0-2.1-0.1-4-0.3-5.7c-0.1-1.6-0.6-3.1-1-4.5c-0.6-1.5-1.2-2.7-1.9-3.3c-0.7-0.6-1.6-0.9-2.7-0.6
		c-0.6,0.6-1,1.3-1.6,2.2c-0.6,0.9-1,1.9-1.5,3.3s-0.9,2.5-1.3,3.4c-0.4,0.9-0.9,1.5-1.2,1.9c-0.1,0.6-0.3,1.2-0.7,1.9
		s-0.9,1.6-1.6,2.7c0,0.1,0,0.3-0.1,0.6c0,0.3-0.1,0.6-0.3,1c-0.4-0.6-0.9-1.2-1.5-1.8C183.2,134.2,182.6,133.6,182,133z"/>
	<path d="M234.4,116.7l0.3-0.3l0.1-0.4c0.4-0.7,0.9-1.3,1.2-1.8c0.3-0.4,0.6-0.7,0.9-1c0.1-0.1,0.4-0.4,0.9-0.7s1.2-0.7,2.1-1.2
		l0.6-0.4c0.1-0.3,0.4-0.9,1-1.6c0.4-0.7,1-1.5,1.8-2.4c0.1-0.1,0.3-0.4,0.6-0.7c0.3-0.3,0.6-0.6,0.9-0.9c0.6-0.7,1.3-1.6,1.9-2.4
		c0.6-0.9,1.2-1.6,1.8-2.5c0.3-0.3,0.7-0.9,1.5-1.6c0.7-0.9,1.8-1.9,3.1-3.4c0.1-0.1,0.6-0.4,1-0.7c0.4-0.3,1.2-0.7,2.1-1.3
		c0.4-0.3,0.6-0.6,0.7-1c0.1-0.4,0.1-1,0.1-1.6c0.1-0.4,0.4-0.9,0.6-1.5c0.1-0.6,0.3-1.3,0.4-2.1c0.1-1,0.3-1.8,0.4-2.4
		c0.1-0.6,0.1-1,0.3-1.3c0.3-1.5,0.9-3.1,1.6-5.1c0.7-1.9,1.5-4.2,2.4-6.7c0.4-1.3,1-2.8,1.6-4.5c0.4-0.9,0.9-1.5,1.5-1.9
		c0.6-0.4,1.2-0.7,1.9-0.7c0.6,0,1,0.1,1.3,0.4c0.3,0.3,0.4,1,0.6,1.8c0.1,1.3,0.1,2.5,0.1,3.9c0,1.2-0.3,2.4-0.6,3.4
		c0,0.3-0.1,0.6-0.1,1c0,0.4,0,1,0,1.6c0,0.4,0,0.9-0.1,1.3s-0.3,0.9-0.6,1.2c0,0.1,0,0.4,0,0.7s0,0.6,0,1l-0.6,0.9
		c0,0.1,0,0.4,0,0.7s0,0.6,0.1,0.7c0,0.1,0,0.6-0.1,1.2c-0.1,0.6-0.4,1.3-0.7,2.4c-0.4,1-0.7,1.9-0.9,2.7c-0.1,0.6-0.3,1-0.3,1.2
		c-0.1,0.1-0.3,0.4-0.4,0.7c-0.1,0.3-0.3,0.7-0.6,1.2l0.3,1l-1.8,11.1c0.1,1.2,0.3,2.2,0.4,3c0.1,0.9,0.3,1.5,0.4,1.9s0.6,1.2,1,1.8
		c0.4,0.7,1,1.5,1.6,2.2c0.4,0.6,0.9,0.9,1.3,1.2c0.4,0.1,1,0.3,1.5,0.3c0.6,0,1.2-0.3,1.8-0.7c0.6-0.4,1-0.9,1.6-1.6
		c0.4,0.7,0.9,1.5,1.3,2.1c0.4,0.7,0.7,1.3,1,1.9c-0.1,0.1-0.4,0.4-0.9,1c-0.4,0.6-1,1.5-1.8,2.5c-0.4,0.6-1,1.2-1.6,1.5
		c-0.7,0.3-1.6,0.6-2.7,0.7c-2.4,0.3-4.3-0.1-5.8-1.2c-1.6-1-2.8-2.7-3.7-5.1c-0.1-0.4-0.3-0.9-0.4-1.2s-0.3-0.7-0.4-1
		c-0.3-0.6-0.7-1.2-1.3-1.8c-0.1,0.3-0.3,0.6-0.4,0.7c-0.3,0.3-0.7,0.7-1,1.2c-0.3,0.4-0.7,1.2-1.2,1.9c0,0.3-0.1,0.7-0.4,1.2
		c-0.1,0.4-0.4,1-0.9,1.8c-0.9,1.2-1.8,2.5-2.7,3.7c-0.9,1.3-1.8,2.5-2.7,3.7c-1.2,1.6-2.4,3-3.4,3.9c-1,0.9-2.1,1.3-3,1.5
		c-1.5,0.1-2.7,0-3.6-0.7c-0.9-0.6-1.3-1.8-1.5-3.3c-0.1-0.7,0-1.8,0.4-3.1c0.4-1.3,0.6-2.4,0.4-3l-0.3-0.7L234.4,116.7z
		 M256.2,100.7c0-0.1-0.1-0.4-0.3-0.7c-0.4,0.4-0.9,1.2-1.5,1.8c-0.6,0.7-1.3,1.5-2.2,2.4c-0.1,0.4-0.6,1.3-1.2,2.5
		s-1.6,2.5-2.8,4.3c-0.3,0.4-0.7,1.3-1.3,2.5c-0.6,1.2-1.2,2.7-2.1,4.5c-0.3,0.7-0.6,1.5-0.7,2.5c0,0.1,0.1,0.4,0.4,0.6
		c0.9-0.4,1.9-1.3,3.1-2.8c1.2-1.5,2.5-3.6,4.2-6.1c1.6-2.7,2.8-5.1,3.6-7C256.1,103.4,256.4,101.9,256.2,100.7z"/>
	<path d="M273.1,112.5c0.4-0.6,0.9-1.3,1.5-1.9s1.3-1.3,2.2-2.1c0.1-0.6,0.1-1.2,0.3-1.8c0.1-0.6,0.1-1.2,0.1-1.8
		c0.1-0.4,0.3-0.9,0.4-1.5s0.4-1.2,0.7-1.9s0.6-1.5,1.2-2.5c0.4-1,1-2.2,1.9-3.4c0.6-0.7,1.3-1.5,2.1-2.4s1.5-1.6,2.1-2.5
		c0.3-0.3,0.7-0.6,1.2-0.7c0.4-0.3,0.7-0.6,1.2-0.9c0.4-0.1,0.7-0.3,1.2-0.3c0.4-0.1,1-0.1,1.5-0.1c0.7,0,1.3,0.1,1.9,0.3
		c0.4,0.1,0.9,0.4,1.2,0.7c0.1,0.3,0.4,0.6,0.6,1.2c0.1,0.4,0.4,1,0.6,1.8c0.1,0.6,0.1,1.3,0.3,2.1c0-0.1,0-0.1-0.1,0.3
		s-0.3,0.9-0.4,1.6l-0.4,1.5c-0.4,1.5-1.5,3.3-3,5.2c-1.5,1.9-3.6,4.2-6.1,6.7c-0.1,0.1-0.4,0.4-0.6,0.7s-0.3,0.7-0.3,1
		c0,0.6,0.1,1.2,0.3,1.8c0.3,0.4,0.6,0.9,1,1.2c0.3,0.1,0.6,0.4,1.2,0.6s1.2,0.3,1.9,0.4c1.2-0.1,2.4-0.3,3.3-0.6
		c0.9-0.3,1.9-0.7,2.7-1c0.1-0.1,0.4-0.3,0.7-0.4c0.3-0.1,0.7-0.4,1-0.7c0.4,0.9,0.7,1.6,1,2.4c0.3,0.7,0.6,1.3,0.7,1.9
		c-1.8,1.8-3.4,3-4.8,3.9c-1.5,0.9-2.8,1.3-4,1.3c-0.4,0.3-1,0.6-1.6,0.7c-0.6,0.1-1.3,0.1-2.2,0.1c-1.2,0-2.2-0.1-3-0.4
		c-0.9-0.3-1.6-0.9-2.2-1.5c-0.3-0.3-0.6-0.7-0.9-1.3c-0.3-0.6-0.6-1.3-1-2.2c-0.3-0.7-0.6-1.2-0.7-1.5c-0.3-0.3-0.6-0.4-0.9-0.4
		s-0.6,0.1-0.9,0.3c-0.3,0.3-0.6,0.6-1,1c-0.1-0.4-0.3-1-0.6-1.8C274,114.5,273.6,113.6,273.1,112.5z M288.1,97.4
		c-0.7,0-1.6,0.9-2.7,2.7c-1,1.8-1.8,3.1-1.8,3.9c0,0.1,0,0.3,0.1,0.4c0.1,0.1,0.3,0.1,0.4,0.1c0.3,0,0.6-0.1,0.9-0.6
		c0.1-0.3,0.4-0.7,0.6-1c0.3-0.3,0.7-0.6,1-1c0.3-0.3,0.6-0.7,0.9-1c0.4-0.4,0.6-0.9,0.9-1.3c0.1-0.4,0.3-0.9,0.3-1.3
		c0-0.3,0-0.4-0.1-0.7C288.4,97.4,288.2,97.4,288.1,97.4z"/>
	<path d="M336.6,83.7c0-0.6,0.1-1.3,0.1-1.9c0,0.3,0,0,0.3-0.6c0.3-0.7,0.6-1.8,1.2-3.4c0.3-0.3,0.6-0.6,0.7-0.7
		c0.1-0.3,0.3-0.4,0.4-0.6c-0.1-0.4-0.3-0.7-0.4-1c-0.1-0.3-0.1-0.4,0-0.6c0.7-1.8,1.3-3.4,1.9-5.1c0.1-0.4,0.6-0.9,1.2-1.3
		s1.5-0.9,2.5-1.3c0.9-0.4,1.6-0.7,2.4-0.9c0.7-0.3,1.5-0.4,2.1-0.4c0.9-0.1,1.5-0.1,1.6-0.3s0.4-0.1,0.6-0.1c0.4,0.1,0.7,0.4,0.9,1
		c0.1,0.6,0.1,1.3-0.1,2.2c-0.1,0.4-0.4,1.2-0.9,2.1c-0.4,0.9-0.7,1.5-0.9,1.9c0,0.1-0.1,0.9-0.4,2.1c-0.3,1.2-0.6,3-1,5.2
		c-0.3,1.6-0.6,3.4-0.6,5.4c0,1.9,0.1,4,0.3,6.1c0.3,2.8,0.9,5.1,1.6,6.6c0.7,1.5,1.8,2.5,3.1,2.8c1,0.3,2.5-0.1,4.6-1
		c1.9-0.9,4.5-2.4,7.5-4.5c2.2-1.6,4.3-3.1,6.1-4.6s3.3-2.8,4.5-4c1-1.2,2.4-2.1,3.6-3c1.3-0.7,2.7-1.5,4.3-2.1
		c0.4-0.1,0.9-0.3,1.2-0.3c0.3-0.1,0.6-0.1,0.7,0c0.6,0.1,0.9,0.6,0.9,1.5c0.1,0.9,0,2.1-0.4,3.7c-0.6,1.5-1,2.8-1.5,4.3
		c-0.7,2.2-1.8,4.5-2.8,6.7s-2.4,4.6-3.9,7.2c-0.7,1.2-1.3,2.2-1.9,3.3c-0.6,0.9-0.9,1.8-1.2,2.4c-0.1,0.4-0.3,0.9-0.6,1.3
		c-0.3,0.6-0.6,1.2-0.9,1.9c-0.4,0.7-1,1.3-1.5,2.1c-0.4,0.6-0.9,1.2-1.3,1.9s-0.7,1.8-1.2,2.8c0,0.1-0.1,0.4-0.3,0.7
		s-0.3,0.6-0.3,1c-1.5,3-2.8,5.7-4.3,8.5c-0.1,0.3-0.3,0.6-0.6,0.9c-0.4,0-0.9,0.1-1.5,0.4s-1.2,0.7-1.9,1.2c-0.7,0.4-1.2,0.7-1.6,1
		c-0.4,0.1-0.7,0.3-0.9,0.3c-0.3,0-0.4-0.1-0.6-0.3c-0.1-0.1-0.1-0.4,0-0.9c0.1-0.3,0.1-0.4,0.3-0.6c0.6-0.9,1.3-2.4,2.2-4.2
		c0.7-1.8,1.6-4.2,2.7-7c0.1-0.6,0.7-2.2,1.9-4.8c1-2.5,2.7-6.1,4.6-10.6c0.3-0.7,0.7-1.6,1.2-2.7c0.4-1,1-2.2,1.6-3.6
		c0.4-0.7,0.7-1.2,1-1.8c0.3-0.4,0.4-0.9,0.4-1c0-0.3,0-0.6,0-0.7s-0.1-0.3-0.4-0.3c-0.1,0-0.6,0.1-1.2,0.4
		c-0.6,0.3-1.3,0.9-2.4,1.6c-0.6,0.4-1,0.9-1.6,1.3s-1.2,0.9-1.8,1.3c-1,0.6-1.9,1.2-2.8,1.8l-4.2,2.5c-0.3,0.1-0.7,0.3-1.3,0.4
		c-0.4,0.1-1,0.3-1.8,0.6c-0.7,0.7-1.9,1.3-3.3,1.6c-1.3,0.3-2.7,0.4-3.7,0.1c-1.3-0.3-2.4-1-3.4-2.1c-1-1-1.8-2.5-2.5-4.5
		c-0.3-0.9-0.6-1.8-0.9-2.8c-0.3-0.9-0.6-1.9-0.9-2.8h-0.3c-0.1,0.1-0.7,1.3-1.8,3.4c-0.9,2.2-2.2,5.4-4,9.6
		c-1.8,4.3-3.1,7.8-4.2,10.3c-1,2.5-1.5,4-1.8,4.9c-0.3,1-0.7,1.8-1.2,2.2c-0.4,0.4-1,0.7-1.6,0.6c-0.3,0-0.9-0.1-1.5-0.1
		s-1.3,0-2.2,0c-0.1,0-0.3-0.1-0.3-0.3c-0.1-0.1-0.1-0.3-0.1-0.4l0.7-1.6v-1.8c0.4-0.9,0.7-1.8,1.2-2.5c0.6-1.8,1-3.4,1.5-5.1
		c0.1-0.3,0.3-0.9,0.7-1.6s0.6-1.3,0.7-1.6c0-0.1,0.1-0.6,0.1-0.9c0-0.4,0-0.7,0.1-0.9c0.4-1.6,1.2-4,2.5-7.2
		c1.3-3.1,2.2-5.5,2.5-7.3c0.1-0.7,0.1-1.5,0.1-2.1c0.4-1,1-2.4,1.6-3.9C334.8,87.5,335.7,85.7,336.6,83.7z"/>
	<path d="M375.1,127.2l0.4-0.1l0.3-0.4c1.2-0.7,3.1-1.5,5.8-2.5c2.7-0.9,4.6-1.8,5.8-2.5c0.4-0.3,0.9-0.6,1.3-0.6s0.9,0,1.2,0.1
		c1,0.4,1.8,1,2.2,1.8s0.6,1.8,0.4,2.8c-0.1,1-0.3,1.9-0.6,3c-0.3,1-0.4,1.9-0.7,3c0,0.6-0.1,1.6-0.3,3c-0.1,1.3-0.3,2.1-0.1,2.2
		c0,0.3,0.1,0.6,0.4,0.9c0.3,0.3,0.6,0.4,1,0.6c0.4,0.1,1,0.3,1.6,0.4c0.6,0,1.3,0,2.1-0.3c0.6-0.1,1.2-0.4,1.8-0.6
		c0.6-0.1,1.2-0.4,1.9-0.6l0.1,4.6c-0.6,0.3-1.5,0.6-2.5,0.7c-1,0.1-2.2,0.6-3.6,0.9c-1.5,0.4-2.8,0.6-3.9,0.6s-1.8,0-2.1-0.1
		c-2.7-1-4.2-2.1-4.8-3c-0.6-0.9-0.7-3-0.4-6.1c0-0.3-0.1-0.6-0.1-1c-0.1-0.4-0.1-0.9-0.3-1.5c0-0.7-0.1-1.5-0.3-1.8
		c-0.1-0.4-0.3-0.7-0.4-0.7c-0.4-0.1-1.2-0.1-2.2,0.1c-1,0.3-2.4,0.9-4,1.6c0-0.4,0-0.9,0-1.5s0-1.3,0.1-2.1c0-0.1,0-0.4,0-0.6
		C375.2,127.5,375.2,127.4,375.1,127.2z M407.2,100.6c0.7,0.3,1.2,0.6,1.3,1c0.1,0.4,0.1,0.9,0,1.5c-0.4,0.7-0.9,1.3-1.2,1.8
		c-0.7,0.9-1.3,1.6-1.8,2.2s-0.9,1-1,1.2c-0.4,0.6-1,0.9-1.8,1.2c-0.6,0.3-1.3,0.4-2.1,0.6c-0.9,0.1-1.5,0.3-2.1,0.3s-0.9,0-1-0.1
		c-0.4-0.3-0.9-0.4-1.3-0.7c-0.4-0.3-0.9-0.4-1.3-0.6c-0.3-0.3-0.4-0.9-0.4-1.5s0.3-1.5,0.6-2.4c0.3-0.9,1.3-1.8,3-2.5
		c1.6-0.9,2.8-1.2,3.6-0.9c0.7-0.4,1.6-0.9,2.5-1.3c0.3-0.1,0.7-0.1,1.3,0C406,100.4,406.6,100.4,407.2,100.6z"/>
	<path d="M399.8,137.2c0.4-0.1,0.7-0.3,1.3-0.6c0.4-0.3,1-0.4,1.6-0.7l4-0.9c0.1,0,0.3-0.1,0.3-0.3c0.1-0.1,0.1-0.3,0.3-0.6
		c0.1-0.3,0.3-0.7,0.3-0.9c0.3-0.6,1-1.6,2.1-3s1.8-2.1,2.1-2.4l0.1-0.9c1.3-1.6,3-3.4,4.8-5.2s3.9-3.9,6-6c0.4-0.3,1-0.7,1.8-1.2
		c0.6-0.4,1.3-1,2.2-1.8c1.2-1.2,2.7-2.4,4.2-3.4c1.6-1.2,3.3-2.2,5.2-3.4c2.4-1.5,4.5-2.5,6.1-3c1.6-0.4,2.8-0.6,3.6-0.1
		c1.6,0.9,2.5,1.8,2.8,2.7c0.3,0.9,0,2.2-1,3.9c-0.3,0.4-0.7,1-1.3,1.9c-0.6,0.9-1,1.5-1.3,1.9c-0.3,0.4-0.7,1-1.5,1.8
		s-1.3,1.3-1.6,2.1c-0.1,0.1-0.3,0.4-0.6,0.6l-0.3,0.6c-0.3,0.3-0.7,0.7-1.2,1.2c-0.4,0.4-1.2,0.9-1.9,1.5c-0.6,0.6-1.2,1.2-2.1,1.9
		c-0.9,0.7-1.6,1.5-2.7,2.4c-0.3,0.1-0.7,0.4-1.2,0.6c-0.4,0.3-1,0.6-1.5,0.9c-0.3,0.3-0.6,0.6-1,1c-0.4,0.3-1,0.7-1.6,1.2
		c-0.3,0.3-0.7,0.4-1.2,0.7c-0.4,0.3-1,0.6-1.8,0.9c-0.3,0.1-0.7,0.4-1,0.7s-0.9,0.6-1.3,1c-0.6,0.3-1.2,0.6-2.1,1s-1.8,0.9-3,1.5
		c-1.6,1-3.3,2.1-4.9,2.8c-1.5,2.7-1.9,4.9-1.6,6.9c0.3,1.9,1.5,3.4,3.7,4.6c0.1,0,0.6,0.1,1.3,0.4s1.9,0.4,3.3,0.6
		c0.4,0,1-0.1,1.8-0.3c0.7-0.1,1.5-0.3,2.4-0.4l-0.4,4.6c-1,0.3-2.1,0.4-3.1,0.7s-2.1,0.6-3.3,0.7c-1.2,0.3-2.4,0.3-3.4,0.3
		c-1-0.1-2.1-0.4-2.8-0.9c-0.4-0.3-1-0.6-1.9-1.2c-0.9-0.6-1.5-1-1.9-1.2c-1.5-0.9-2.5-2.1-2.8-3.9c-0.3-1.8,0-4,0.9-6.7
		c0.1-0.3,0.1-0.6,0.1-0.7c0-0.3,0-0.6-0.1-0.9c-0.6,0.1-1.2,0.3-1.9,0.6s-1.6,0.4-2.7,0.7L399.8,137.2z M436.7,115.4l-0.1-0.3
		c-2.4,0.6-4.2,1.5-5.7,2.4c-1.5,0.9-2.5,1.9-3.3,3.1c-0.1,0.1-0.3,0.4-0.7,0.9c-0.4,0.3-1,0.7-1.8,1.3c-0.9,0.6-1.8,1.3-2.8,2.1
		c-1.3,1.2-2.4,2.2-3.1,3.1c-0.7,0.7-1.3,1.5-1.5,1.8v0.4c0.3,0.1,0.7,0,1.3-0.3s1.3-0.7,2.4-1.3c0.4-0.4,1-0.7,1.9-1.2
		c0.7-0.4,1.6-1,2.7-1.6c0.7-0.3,2.2-1.5,4.6-3.6c2.2-1.9,3.7-3.3,4.2-3.9c0.3-0.6,0.7-1,1-1.5C436,116.3,436.3,115.8,436.7,115.4z"
		/>
	<path d="M425.5,148.3l5.1,0.1c0.1,0,0.4-0.1,0.7-0.1c0.3-0.1,0.7-0.3,1.2-0.4s0.9-0.3,1.3-0.3s0.9,0,1.5,0.1
		c0.4-0.1,0.9-0.3,1.5-0.3c0.6-0.1,1.5-0.3,2.4-0.3c0.4,0,0.9,0,1.5,0s1.3,0,2.2-0.1c3.9-0.6,7-0.7,9.6-0.7c2.5,0.1,4.3,0.6,5.5,1.5
		c0.6,0.4,1,0.9,1.2,1.5c0.1,0.6,0,1-0.3,1.5c-0.3,0.6-0.7,0.9-1.3,1.2c-0.4,0.3-1,0.4-1.6,0.4c-0.9,0-1.9,0-3.1,0.1
		c-0.7,0.3-1.6,0.4-2.7,0.6c-1,0.1-2.1,0.3-3.3,0.3c-0.4,0.1-0.9,0.3-1.2,0.4c-0.1,0-0.6,0.1-1.2,0.1c-0.6,0.1-1.3,0.1-2.2,0.1
		c-0.6,0.4-1.6,0.7-3.1,1s-3.4,0.6-5.7,0.9c-0.3,0-0.9,0.3-1.8,0.6c-0.9,0.3-2.1,0.7-3.6,1.3v0.6c0.7,0.1,1.5,0.3,2.4,0.3
		s1.9-0.1,3.3-0.3c1.3-0.1,2.5-0.3,3.4-0.4s1.5-0.1,1.8-0.1c0.3,0,0.4,0,0.7,0c0.3,0,0.6,0,0.9,0c2.1-0.6,4-0.9,5.5-0.9
		s2.7,0.3,3.6,0.9c0.6,0.4,0.7,0.9,0.7,1.5s-0.3,1.3-0.7,2.2c-0.9,1.2-1.8,2.4-2.7,3.6c-0.6,0.7-0.9,1.6-0.9,2.7s0.4,1.8,1.2,2.2
		c0.3,0.1,0.4,0.3,0.7,0.3s0.6,0,1,0c0.3-0.1,0.6-0.1,0.9-0.3c0.3-0.1,0.6-0.1,0.9-0.3c0.1,0,0.3,0,0.6,0s0.6,0,0.9,0
		c-0.1,1-0.3,1.9-0.4,2.7c-0.1,0.7-0.3,1.3-0.4,1.9c-0.9,0.1-1.9,0.3-2.8,0.4c-1,0.1-1.9,0.3-3,0.3c-1.2,0-2.2,0-3.1-0.1
		s-1.8-0.6-2.4-1c-1.6-1.2-2.5-2.5-2.8-4s0.3-3.4,1.3-5.4c0.1-0.3,0.3-0.4,0.4-0.7c0.1-0.3,0.1-0.6,0.1-1c-0.1,0-0.4,0-0.7,0.1
		c-0.3,0-0.6,0.1-0.9,0.1c-0.4,0-1.2,0-1.9,0.1c-0.7,0-1.6,0.1-2.7,0.1c-1.5,0.3-2.8,0.6-3.9,0.7c-1,0.1-1.8,0.3-2.2,0.3
		c-0.7,0.1-1.6,0.1-2.7,0c-1,0-2.1-0.1-3.3-0.3c-0.7-0.1-1.3-0.1-1.8-0.3c-0.4-0.1-0.9-0.1-1-0.3c-1.2-0.9-1.9-1.8-2.1-2.8
		s0.1-2.1,1-3.4c0.4-0.7,1-1.2,1.8-1.6s1.6-0.7,2.5-0.9c0.3-0.3,0.4-0.6,0.6-0.7c0.1-0.1,0.1-0.3,0.1-0.4c0-0.1,0-0.4,0.1-0.6
		c0.1-0.4,0.1-1,0.3-1.5c0.1-0.6,0.3-1.2,0.3-1.9c0.1,0,0.4-0.1,0.9-0.3C424.5,148.8,424.9,148.6,425.5,148.3z"/>
	<path d="M452.4,169.6h0.4c0.4-0.3,0.9-0.4,1.5-0.4c0.6-0.1,1.5,0,2.4,0.1c1.2,0.1,2.1,0.3,2.8,0.4c0.7,0.1,1.2,0.1,1.3,0
		c0.4,0,0.7-0.1,0.9-0.1c0.4,0,0.9,0,1.6,0c0.6,0,1.5,0,2.2,0c0.3,0,0.6,0,1-0.1s0.9-0.1,1.3-0.4c0.4,0,1,0.1,1.8,0.1s1.5,0,2.4,0
		c1.2-0.1,2.4-0.1,3.9-0.3c1.3-0.1,3-0.1,4.5-0.1c0.4,0.1,0.7,0.3,1.2,0.4c0.3,0.1,0.6,0.3,0.9,0.6c1,0.9,1.6,1.9,1.6,2.8
		c0.1,0.9-0.3,1.9-1.2,2.8c-0.1,0.3-0.6,0.6-1.2,1s-1.2,1-2.1,1.8c-2.4,2.1-3.9,3.3-4.5,3.7c-0.6,0.4-2.5,1.5-5.7,3.4
		c-0.6,0.3-1.2,0.6-2.1,1.2c-0.7,0.4-1.6,1-2.8,1.8c0,0.1,0,0.3,0.1,0.6c0.1,0.1,0.6,0.3,1.3,0.3s1.6,0.1,3,0.1c1.5,0,2.7,0,3.4,0
		s1.3,0,1.5,0.1c-0.3,0.9-0.6,1.6-0.7,2.4c-0.3,0.7-0.4,1.3-0.7,1.9c-0.4-0.1-0.9-0.1-1.3-0.1s-0.9,0-1.3,0.1
		c-0.7-0.1-1.6-0.3-2.7-0.4c-1-0.1-2.1-0.3-3.3-0.4c-0.6,0-1.5,0-2.5,0c-1,0-2.2,0-3.4-0.1l-0.7-0.4c-0.7,0.1-1.3,0.1-1.8,0.1
		c-0.4,0-0.9-0.1-1.2-0.1c-0.4-0.1-1-0.4-1.5-0.6c-0.4-0.1-1-0.4-1.5-0.6c-0.1-0.3-0.3-0.6-0.1-0.9c0.1-0.3,0.3-0.7,0.6-1
		c0.1-0.9,0.6-1.9,1-2.8c0.4-1,1.2-1.9,2.1-3c0.1-0.1,0.3-0.3,0.6-0.6c0.1-0.1,0.4-0.3,0.6-0.4c0.4-0.7,0.6-1.2,0.7-1.3
		c0.6-0.7,1.3-1,2.4-1c0.9,0,1.8,0.3,2.4,0.9c0.3,0.3,0.4,0.7,0.3,1.2c-0.1,0.4-0.1,0.7,0,0.9c0.1,0.1,0.6,0,1.3-0.4
		c0.7-0.4,1.8-1.2,3-2.4c1-0.9,2.1-1.8,2.8-2.5s1.3-1.3,1.6-1.8c0.3-0.3,0.4-0.6,0.4-0.9c0-0.3-0.1-0.6-0.4-0.7
		c-0.3-0.3-1.9-0.4-4.8-0.4c-2.8-0.1-7,0-12.4,0.1c-0.3,0.1-0.6,0.1-0.9,0.3c-0.4,0.1-0.9,0.1-1.3,0.3c0.1-0.4,0.4-1,0.6-1.8
		S452.1,170.6,452.4,169.6z"/>
</g>
</svg>
