<?xml version="1.0" encoding="utf-8"?>
<!-- Generator: Adobe Illustrator 22.0.0, SVG Export Plug-In . SVG Version: 6.00 Build 0)  -->
<svg version="1.1" id="Capa_1" xmlns="http://www.w3.org/2000/svg" xmlns:xlink="http://www.w3.org/1999/xlink" x="0px" y="0px"
	 viewBox="0 0 312.6 312.6" style="enable-background:new 0 0 312.6 312.6;" xml:space="preserve">
<style type="text/css">
	.st0{fill:#FE873E;}
	.st1{fill:#F67026;}
	.st2{fill:#E2CF00;}
	.st3{fill:#FEF26B;}
	.st4{fill:#D53030;}
	.st5{fill:#FA5858;}
	.st6{fill:#5CA23B;}
	.st7{fill:#6DC44A;}
	.st8{fill:#6CC44A;}
	.st9{fill:#6CC349;}
</style>
<g>
	<path class="st0" d="M269.7,254.2c-3.6-0.7-6-3.3-8.4-5.7c-38.9-38.9-77.8-77.7-116.6-116.6c-4.2-4.2-6.2-4.5-10.7-1.6
		c-3.8-1.8-6.2-5.1-8.8-8.2c3.4-4.1,3.3-6.5-0.8-10.6C103.1,90.4,81.9,69.2,60.7,48c-4.8-4.8-7.1-10.2-4.6-16.9
		c1.5-1.4,3.4-1.3,5.3-1.3c39.7,0,79.3,0,119,0c1.5,0,2.9,0,4.3,0.5c1.9,1,1.5,2.3,0.5,3.6c-0.9,1.2-2,2.2-3,3.2
		c-16.9,16.9-33.7,33.7-50.6,50.6c-1.2,1.2-2.6,2.3-3.4,3.9c-1.1,2.4-1.3,4.7,1,6.5c2.2,1.8,4.3,1.3,6.5-0.5
		c6.5-5.4,12-11.7,17.8-17.7c12.7-13.1,25.7-25.9,38.7-38.7c2.5-2.5,4.9-4.9,4.7-8.8c0-0.7,0.4-1.2,1-1.7c1.8-1,3.9-0.8,5.9-0.8
		c13.7,0,27.4,0.3,41.1-0.1c14.3-0.4,27.3,8.4,26,26.2c-0.1,1.7,0.1,3.5-0.3,5.2c-0.4,1.6-1.6,2-3,2.1c-2.9,0.1-5,1.7-6.9,3.6
		c-25.1,25-50.2,50.1-75.2,75.2c-1.1,1.1-2.1,2.4-3,3.8c-1.4,2-1.3,4,0.2,5.9c1.6,1.9,3.7,2,5.8,1.2c1.9-0.7,3.2-2.3,4.6-3.7
		c23.8-23.8,47.7-47.7,71.5-71.5c1-1,2-2.1,3.3-2.9c1.4-0.9,2.2-0.5,2.7,1.1c0.6,11.3,0.4,22.6,0.1,33.9c-0.4,2.3-2.2,3.6-3.6,5.1
		c-18.1,18.1-36.1,36.1-54.2,54.2c-1.2,1.2-2.5,2.4-3.5,3.8c-1.4,2.2-1.3,4.4,0.6,6.2c2,1.9,4.3,2.1,6.5,0.3
		c6.2-5,12-10.6,17.3-16.6c10.2-11.4,21.5-21.8,32.2-32.7c1.1-1.2,2.5-2.8,4.3-0.7c0.7,1.4,0.7,2.8,0.7,4.3c0,11.9,0,23.8,0,35.7
		c0,1.5,0,2.9-0.6,4.3c-0.9,1.5-2.2,1.2-3.5,0.7c-2.6-0.9-4.7-0.2-6.5,1.6c-7.6,7.5-15.1,15-22.6,22.6c-2.6,2.7-2.7,5.3-0.7,7.4
		c2.1,2.2,4.9,2.1,7.7-0.6c6.9-6.6,13.5-13.6,20.4-20.2c1.3-1.3,2.7-3.9,5.2-1.3c0.8,1.9,0.7,3.9,0.7,5.9c0,19.3,0,38.7,0,58
		C270.9,250,271.4,252.3,269.7,254.2z"/>
	<path class="st1" d="M268.8,174.4c0.9-0.6,0.9-1.6,0.9-2.5c0-13.6,0-27.3,0-40.9c0-0.8,0-1.6-0.6-2.2c-0.9-1.6,0.6-2.4,1.4-3.3
		c1.8-2,3.8-3.7,5.6-5.7c1.6-1.7,2.9-3.6,1.6-6c-1.3-2.3-3.3-3.3-6-2.5c-0.6,0.2-1.3,0.3-1.8-0.3c0-12.3,0-24.5,0-36.8
		c-0.1-0.5,0-1.1,0.3-1.5c2.3-2.9,2.7-5.8,0-8.7c-0.4-0.4-0.4-0.9-0.3-1.5c-0.3-5.3,0.9-10.6-0.8-15.8c-2.9-9.1-10.5-15.3-20-15.4
		c-16.2-0.2-32.5-0.1-48.7-0.1c-0.9,0-1.9,0-2.5,0.9c-3.1-1-5.9-3.9-9.4-0.9c-0.7,0.6-1.5,1.1-2.5,0.9c-1.2-1.5-3-0.9-4.5-0.9
		c-41.7,0-83.4,0-125.1,0c2.1-6.5,7.2-10.2,14.5-10.3c6.4-0.1,12.8-0.1,19.2-0.1c60.5,0,121.1,0,181.6,0c12.3,0,18.2,5.8,18.2,18
		c0,66.3,0,132.5,0,198.8c0,11.5-7.1,18.6-17.3,17.5c-0.9-0.1-1.7-0.6-2.6-0.9c0-22.3,0-44.7,0-67c0-1.4,0.5-3-0.8-4.1
		C269.1,180.2,269.2,177.3,268.8,174.4z"/>
</g>
<g>
	<path class="st2" d="M150.8,155.9c5.8,3.1,6.3,8.2,4.5,14.1c-1.1,0.3-1.9-0.8-2.8-1.3c-15.7-9.3-31.4-18.7-47.1-28
		c-3.2-1.9-4.7-4.3-5.3-7.9c-2-11.7-4.3-23.3-6.5-35.1c3.9,3.8,7.6,7.5,11.4,11.2c2.4,4.2,2.6,9,3.2,13.6c0.8,5.8,3.8,9.5,8.6,12.3
		c8.5,4.9,16.8,10.1,25.3,15C145.2,151.5,148.1,153.5,150.8,155.9z"/>
	<path class="st3" d="M150.8,155.9c-8.8-5.1-17.6-10.2-26.3-15.3c-2.6-1.5-5.2-3.2-7.8-4.6c-5.5-2.9-9-7-9.5-13.7
		c-0.4-4.5-1.5-8.9-2.2-13.4c3.8,3.8,7.7,7.6,11.5,11.4c2.5,2.6,5.3,3.3,8.5,1.4c3.7,1.9,6,5.3,8.7,8.3c-2.1,3.7-1.2,6.7,1.6,9.6
		C140.6,145,146.2,150,150.8,155.9z"/>
</g>
<g>
	<path class="st4" d="M203.1,209.6c8.4,7.1,15.5,15.5,23.4,23.3c-23.1-1.5-40.9-11.6-52.2-32.2c1.3-0.7,2.3-0.1,3.4,0.5
		c6.6,3.8,13.9,6,21.4,7.1C200.5,208.6,201.7,209.6,203.1,209.6z"/>
	<path class="st5" d="M203.1,209.6c-8.6,0.1-16.3-2.8-24-6.3c-1.7-0.8-3.2-1.7-4.9-2.6c-5.1-8.4-7-17.6-7.9-27.2
		c1.4-0.4,1.8,0.6,2.3,1.2c10.7,10.6,21.3,21.2,31.9,31.9C201.6,207.6,202.3,208.6,203.1,209.6z"/>
</g>
<g>
	<path class="st6" d="M270.7,272.1c-5,12.9-22.3,16.3-32.5,6.3c-2.4-2.3-4.6-4.8-7-7.2c-6.1-6-13.9-7.4-22.1-7.9
		c-2.9-0.2-5.8-0.6-8.8-0.6c-8-0.1-13.2-4.1-16.3-11.3c-1.6-3.8-3.8-7.4-5.6-11.1c-5.3-10.6-14.4-14.8-25.7-15.6
		c-4.3-0.3-8.5-0.4-12.8-0.9c-8.2-0.9-13.6-5.6-16.8-13c-1.8-4.1-2.9-8.5-5.4-12.4c-4.4-7-10.2-12.1-17.8-15.5
		c-12.2-5.4-15.6-12.1-13.2-25.2c2.6-14.4-3.7-27.4-17.1-33.2c-14.5-6.2-18.3-12.8-15.1-28.9c2.3-11.2-5.1-24.3-16-29.7
		c-3-1.5-6.2-2.6-9-4.2c-7.9-4.5-8.9-12.4-2.5-18.9c1.4-1.4,2.6-3.1,4.7-3.6c0.8,0.2,1.4,0.8,1.8,1.5c3.3,5.5,8.6,8.4,14.3,10.7
		c5.4,5.6,10.7,11.2,16.1,16.8c0.5,5.6,0.1,11.2-0.8,16.7c-1.9,11.9,6.9,23.6,20,25.8c1.6,8,3.3,16.1,4.7,24.1
		c0.9,5.1,2.6,9.7,6.5,13.4c1.2,1.8,1.5,4,2.2,6c2.2,6.1,5.9,10.6,11.8,13.5c4.3,2.1,8.8,3.8,12.5,7.1c5.4,4.9,9,10.8,11.3,17.7
		c3.7,11.1,12.5,17.7,24,18.5c4,0.3,8,0.7,11.9,0.9c6.8,9.9,15.4,17.9,25.6,24.1c0.5,0.8,1.3,1.4,1.7,2.2c4.8,9.7,13.6,11.6,23.2,12
		c4,0.1,8,0.7,11.9,1.1c4.7,0.4,8.6,2.9,11.9,6c2.2,2.1,4.3,4.4,6.5,6.5c4.8,4.6,10.3,7.6,17.2,7.3
		C267.8,270.9,269.5,270.7,270.7,272.1z"/>
	<path class="st7" d="M168,211.8c-8.5,1.4-17,1-24.5-3.4c-6.7-4-11-9.9-13.3-17.7c-2.7-8.8-8.4-15.6-17.1-19.6
		c-5.8-2.6-11.7-5.3-15-11.3c-2-3.6-3.8-7.3-3.7-11.6c20,11.7,39.9,23.4,59.9,35.2c1.6,0.9,3.1,1.7,3.6,3.9
		C159.6,196.1,163.5,204.1,168,211.8z"/>
	<path class="st8" d="M270.7,272.1c-10.7,1.3-19.3-2.8-25.8-11.1c-6.6-8.4-15.8-9.4-25.3-9.8c-3.9-0.1-7.6-0.7-11.4-1.5
		c-7.6-1.7-12.1-6.6-14.5-13.8c11.8,6.1,24.3,10.5,37.5,9.2c7.9-0.8,12.6,2.1,17.3,7.5c4.8,5.4,9.8,11,17.2,13.4
		c0.9,0.3,1.8,0.8,2.7,0.8C272.8,267,272.6,269.1,270.7,272.1z"/>
	<path class="st7" d="M83.2,110.7c-0.2,1-0.5,1.7-1.8,1.2c-10.8-3.8-18.3-10.6-19.6-22.6c-0.2-2,0.2-4.2,0.6-6.3
		c0.9-4.2,0.7-8.5,0.8-12.7c0-0.8,0.1-1.6,0.9-2.1c4.3,4.2,8.5,8.4,12.8,12.6c0.7,0.7,1.3,1.4,1.4,2.3
		C79.8,92.3,81.5,101.5,83.2,110.7z"/>
	<path class="st9" d="M47.8,51.4c-5,0.1-8.5-3-11.8-6c-1.8-1.6-2.9-4.1-4.3-6.2c1.1-0.8,2.1-1.7,3.2-2.3c2.3-1.1,4.9-3.2,6.8-2.7
		c2.6,0.6,0.7,4.1,1.3,6.3C44.1,44.4,45.6,48.1,47.8,51.4z"/>
</g>
<path d="M278.5,8.7c8.7,2.4,16.2,6.5,20,15.1c1.8,4.2,3.1,8.9,3.1,13.4c0.2,67.3,0.2,134.7,0.1,202c0,11.4-4.9,19.9-15.1,25.4
	c-1.1,0.6-2.2,2.3-2.4,3.6c-1.9,13.2-9.1,22.1-21.6,26.3c-12.4,4.2-23.6,1.5-33.1-7.8c-1-1-2.1-2-3-3.2c-4.3-5.3-9.8-7.9-16.7-8.1
	c-5.7-0.2-11.4-0.8-17-1.8c-7.4-1.3-12.9-5.6-16.6-12c-2.6-4.5-5.1-9-7.3-13.8c-3.3-7.3-8.9-10.5-16.6-11
	c-5.7-0.3-11.5-0.4-17.1-1.6c-11.1-2.5-19.4-9.1-23-20c-3.6-10.6-9.6-18.1-20.2-22.7c-13.9-6-19.9-19.1-17.3-34.6
	c2.1-12.5-1-18.7-12.9-23.6c-10.6-4.3-17.5-11.7-19.6-22.8c-0.8-4.3-0.1-9,0.4-13.5c1.4-11.9-1.9-17.2-12.6-22.5
	C24.9,73.1,19.8,70,16,66c-8.9-9.3-4.8-24.2,3.4-31.9c7.2-6.8,16-10.4,25.2-13.3c2.2-0.7,4.4-2,5.9-3.6c4.4-4.7,10-6.7,15.9-8.4
	C137.1,8.7,207.8,8.7,278.5,8.7z M155.7,170.1c1.6-8.5,1.6-8.5-4-14.1c-5.6-5.6-11.2-11.1-16.7-16.7c-3-3.1-3.1-6.8-0.6-9.2
	c2.5-2.4,5.9-2.1,8.9,0.6c1,0.9,1.9,1.9,2.8,2.8c38.5,38.5,76.9,76.9,115.4,115.4c3.2,3.2,6.5,5.9,11.2,6.3
	c10.1,0.7,16.8-6.3,16.8-17.7c0-66.3,0-132.5,0-198.8c0-12-6-17.9-17.9-17.9c-66,0-132,0-198,0c-1.6,0-3.2,0-4.8,0.1
	c-7.2,0.7-12.9,6.2-13.7,13c-0.7,5.7,1.6,10.3,5.6,14.3c21,20.9,41.9,41.8,62.8,62.7c4.3,4.3,4.9,7.8,2,10.6
	c-2.9,2.8-6.3,2.1-10.6-2.2c-3-3-6-6-9-9.1c-3.9-3.9-7.8-7.9-12.4-12.6c0.2,2.1,0.3,3,0.5,3.9c2,10.6,4.1,21.2,6,31.8
	c0.6,3.4,2.2,5.7,5.2,7.5c15.9,9.2,31.8,18.5,47.6,27.8C153.7,169.1,154.7,169.6,155.7,170.1z M272,267.7
	c-11.4-3.2-12.3-3.7-21-12.4c-2.8-2.8-5.5-5.8-8.6-8.4c-1.3-1.1-3.5-2-5.2-1.8c-36.5,3.5-70.2-20.4-78.9-56c-0.7-2.8-2.1-4.5-4.6-6
	c-18.2-10.5-36.3-21.3-54.6-31.7c-6.4-3.7-9.9-8.8-11.2-16c-3-16.8-6.3-33.5-9.6-50.2c-0.3-1.7-1.3-3.5-2.5-4.7
	c-6.2-6.4-12.5-12.8-18.9-19c-7.7-7.4-15-15-14-27.3c-7.4,2.6-13.9,5.7-18,12c-3.5,5.4-2.6,10.5,2.4,14.4c2.1,1.6,4.4,3.1,6.9,3.9
	c14.1,4.7,23.3,19.2,20,36c-2.4,11.9,1.3,18,12.3,22.8c16.9,7.4,22.7,18,19.9,36.3c-1.7,11.1,1.8,18.6,11.7,22.7
	c12.5,5.2,20.2,14.2,24.3,26.9c3.1,9.5,10,14.4,19.9,14.9c3.7,0.2,7.4,0.5,11.2,0.8c11.7,0.9,20.5,6.1,25.6,16.9
	c1.2,2.5,2.8,4.9,3.8,7.5c3.5,9.5,10.3,14,20.2,13.7c14.4-0.5,26.1,4.2,35.4,15.7c4.9,6.1,12.5,6.9,19.9,4.5
	C265.9,280.6,270.7,275.6,272,267.7z M226.6,233c-19.2-19.2-39-39-58.3-58.2C169.2,205,195.4,232.4,226.6,233z"/>
<path d="M273.7,67.7c-1.4,2.3-2.2,4.2-3.5,5.5c-26.2,26.2-52.4,52.4-78.6,78.5c-3.4,3.4-6.8,3.7-9.4,1.2c-2.8-2.8-2.5-6.1,1.1-9.7
	c26-26,52-52,77.9-78c2.3-2.3,5-4.1,8.1-2.4C271,63.6,272.1,65.8,273.7,67.7z"/>
<path d="M246.6,40.5c-1.4,2.3-2.1,4.2-3.5,5.6c-26.3,26.3-52.6,52.6-79,78.9c-3.2,3.2-6.6,3.4-9.1,0.9c-2.5-2.5-2.4-6.1,0.7-9.2
	c26.4-26.4,52.8-52.8,79.2-79.2c2.1-2.1,4.6-3.2,7.2-1.7C243.9,36.5,245,38.6,246.6,40.5z"/>
<path d="M279.2,116.8c-0.5,0.8-1.2,2.7-2.4,3.9c-19.6,19.6-39.2,39.2-58.9,58.7c-1.2,1.2-3.2,2-4.9,2c-4.4,0-6.9-4.8-4.8-8.7
	c0.5-0.9,1.3-1.7,2-2.5c19.2-19.2,38.4-38.5,57.7-57.7c0.8-0.8,1.8-1.7,2.8-2.2C274.6,108.6,279.2,111.6,279.2,116.8z"/>
<path d="M131.9,101.2c-1.8-1.4-4.1-2.4-4.8-4c-0.8-1.6-0.3-4.1,0.2-6c0.3-1.1,1.6-2,2.6-3c18.6-18.6,37.1-37.1,55.7-55.7
	c0.2-0.2,0.4-0.4,0.6-0.6c3.9-3.8,7.3-4.3,10-1.6c2.8,2.7,2.3,6.3-1.4,10c-11.1,11.1-22.3,22.2-33.4,33.3
	c-8.1,8.1-16.2,16.2-24.4,24.2C135.7,99.2,133.9,100,131.9,101.2z"/>
<path d="M104.9,74.2c-1.9-1.5-4.4-2.6-5-4.3c-0.7-1.9-0.3-5,0.9-6.5c3.4-4.2,7.5-7.9,11.4-11.7c3.9-4,7.8-8,11.9-11.8
	c3.1-3,6.7-3.2,9.2-0.7c2.6,2.6,2.5,6-0.7,9.2c-7.5,7.6-15,15.1-22.6,22.5C108.7,72.1,107,72.9,104.9,74.2z"/>
<path d="M271.2,178.4c-1.3,2.1-1.9,3.8-3.1,5c-7.6,7.7-15.2,15.3-22.9,22.8c-3.3,3.2-6.6,3.2-9.1,0.7c-2.5-2.6-2.3-6,0.8-9.2
	c7.5-7.6,15-15.1,22.6-22.6c2-2,4.5-3.4,7.1-1.8C268.5,174.5,269.7,176.6,271.2,178.4z"/>
</svg>
